# xmcd CD database file
#
# Track frame offsets:
#	150
#	14560
#	28118
#	44040
#	56385
#	75988
#	89240
#	102913
#	116775
#	130475
#	144368
#	161403
#
# Disc length: 2353 seconds
#
# Revision: 0
# Processed by: cddbd v1.5.2PL0 Copyright (c) Steve Scherf et al.
# Submitted via: CDex 1.51
#
DISCID=a4092f0c
DTITLE=Gene Krupa - Swing Back With Gene Krupa
DYEAR=1900
DGENRE=Jazz
TTITLE0=Drum Boogie
TTITLE1=Indiana
TTITLE2=Out Of Nowhere
TTITLE3=All By Myself
TTITLE4=The Man I Love
TTITLE5=Opus #1
TTITLE6=Jeepers Creepers
TTITLE7=King Porter Stomp
TTITLE8=Rockin' Chair
TTITLE9=Stompin' At The Savoy
TTITLE10=I'll Never Be The Same
TTITLE11=How High The Moon
EXTD=
EXTT0=
EXTT1=
EXTT2=
EXTT3=
EXTT4=
EXTT5=
EXTT6=
EXTT7=
EXTT8=
EXTT9=
EXTT10=
EXTT11=
PLAYORDER=
